<svg id="Capa_1" data-name="Capa 1" xmlns="http://www.w3.org/2000/svg" xmlns:xlink="http://www.w3.org/1999/xlink" viewBox="0 0 250 250"><defs><style>.cls-1{fill:none;}.cls-2{fill:url(#Degradado_sin_nombre_194);}.cls-3{fill:url(#Degradado_sin_nombre_194-2);}.cls-4{fill:url(#Degradado_sin_nombre_194-3);}.cls-5{fill:url(#Degradado_sin_nombre_194-4);}.cls-6{fill:url(#Degradado_sin_nombre_194-5);}</style><linearGradient id="Degradado_sin_nombre_194" x1="14.65" y1="115.31" x2="179.99" y2="115.31" gradientUnits="userSpaceOnUse"><stop offset="0.3" stop-color="#916173"/><stop offset="0.49" stop-color="#a06a71"/><stop offset="0.81" stop-color="#c2806e"/><stop offset="0.92" stop-color="#d78e6b"/><stop offset="1" stop-color="#e1956a"/></linearGradient><linearGradient id="Degradado_sin_nombre_194-2" x1="155.73" y1="193.67" x2="236.05" y2="193.67" xlink:href="#Degradado_sin_nombre_194"/><linearGradient id="Degradado_sin_nombre_194-3" x1="179.32" y1="188.49" x2="212.46" y2="188.49" xlink:href="#Degradado_sin_nombre_194"/><linearGradient id="Degradado_sin_nombre_194-4" x1="169" y1="194.72" x2="222.78" y2="194.72" xlink:href="#Degradado_sin_nombre_194"/><linearGradient id="Degradado_sin_nombre_194-5" x1="179.32" y1="194.72" x2="212.46" y2="194.72" xlink:href="#Degradado_sin_nombre_194"/></defs><title>icono</title><path class="cls-1" d="M196,183.51a15.87,15.87,0,0,1,6.62-3.28,113.76,113.76,0,0,0-11-13.08,26.87,26.87,0,0,0-17,10.12c2.18,2.09,4.25,4.31,6.23,6.61C186.43,176.44,194.06,181.89,196,183.51Z"/><path class="cls-2" d="M180,156.79a113.34,113.34,0,0,0-31-16.94,59.93,59.93,0,1,0-76-.24,113.17,113.17,0,0,0-56.58,43.9c-3.26,4.87-2,8.56,2.91,11.81a10.6,10.6,0,0,0,14.72-2.91,92.23,92.23,0,0,1,130.35-23.64A40.2,40.2,0,0,1,180,156.79Zm-68.83-19.66a43.7,43.7,0,1,1,43.7-43.7A43.76,43.76,0,0,1,111.16,137.13Z"/><path class="cls-3" d="M195.89,153.51a40.16,40.16,0,1,0,40.16,40.16A40.12,40.12,0,0,0,195.89,153.51Zm0,67.05a26.87,26.87,0,0,1-4.26-53.41,27.21,27.21,0,0,1,4.26-.37,26.89,26.89,0,1,1,0,53.78Z"/><path class="cls-4" d="M180.84,183.88a87,87,0,0,1,6.37,8.34,10.61,10.61,0,0,0,14.72,2.88c4.87-3.27,6.15-7,2.88-11.82-.69-1-1.43-2-2.16-3.05a15.87,15.87,0,0,0-6.62,3.28C194.06,181.89,186.43,176.44,180.84,183.88Z"/><path class="cls-5" d="M201.93,195.1a10.61,10.61,0,0,1-14.72-2.88,87,87,0,0,0-6.37-8.34l0,.05c-6.55,8.83,10.43,22.24,14.75,25.43,0,0,22.26-16.6,15.7-25.43-2.67-3.6-5.82-4.21-8.6-3.7.73,1,1.47,2,2.16,3.05C208.08,188.14,206.8,191.83,201.93,195.1Z"/><path class="cls-6" d="M201.93,195.1a10.61,10.61,0,0,1-14.72-2.88,87,87,0,0,0-6.37-8.34l0,.05c-6.55,8.83,10.43,22.24,14.75,25.43,0,0,22.26-16.6,15.7-25.43-2.67-3.6-5.82-4.21-8.6-3.7.73,1,1.47,2,2.16,3.05C208.08,188.14,206.8,191.83,201.93,195.1Z"/></svg>