<svg id="Capa_1" data-name="Capa 1" xmlns="http://www.w3.org/2000/svg" xmlns:xlink="http://www.w3.org/1999/xlink" viewBox="0 0 250 250"><defs><style>.cls-1{fill:url(#Degradado_sin_nombre_194);}.cls-2{fill:url(#Degradado_sin_nombre_194-2);}</style><linearGradient id="Degradado_sin_nombre_194" x1="12.19" y1="123" x2="242.58" y2="123" gradientUnits="userSpaceOnUse"><stop offset="0.3" stop-color="#916173"/><stop offset="0.49" stop-color="#a06a71"/><stop offset="0.81" stop-color="#c2806e"/><stop offset="0.92" stop-color="#d78e6b"/><stop offset="1" stop-color="#e1956a"/></linearGradient><linearGradient id="Degradado_sin_nombre_194-2" x1="101.74" y1="99.88" x2="174.04" y2="99.88" xlink:href="#Degradado_sin_nombre_194"/></defs><title>icono</title><path class="cls-1" d="M242.12,106.43a4.84,4.84,0,0,0-4.39-2.79H223.38a106.42,106.42,0,1,0-12.46,72.63,9.68,9.68,0,0,0-16.76-9.7,87.22,87.22,0,1,1,9.41-62.93H189.34a4.84,4.84,0,0,0-3.73,7.94l24.21,29.05a4.84,4.84,0,0,0,7.43,0l24.21-29A4.84,4.84,0,0,0,242.12,106.43Z"/><path class="cls-2" d="M118.69,40.71A9.68,9.68,0,0,0,109,50.39v58.74A16.93,16.93,0,0,0,118.69,140a16.67,16.67,0,0,0,7.15-1.64l33.67,19.44a9.56,9.56,0,0,0,4.84,1.3A9.68,9.68,0,0,0,169.19,141l-33.71-19.47a16.86,16.86,0,0,0-7.1-12.38V50.39A9.7,9.7,0,0,0,118.69,40.71Zm0,89.55A7.26,7.26,0,1,1,126,123,7.27,7.27,0,0,1,118.69,130.26Z"/></svg>