<svg id="Capa_1" data-name="Capa 1" xmlns="http://www.w3.org/2000/svg" xmlns:xlink="http://www.w3.org/1999/xlink" viewBox="0 0 250 250"><defs><style>.cls-1{fill:url(#Degradado_sin_nombre_194);}.cls-2{fill:url(#Degradado_sin_nombre_194-2);}.cls-3{fill:url(#Degradado_sin_nombre_194-3);}.cls-4{fill:url(#Degradado_sin_nombre_194-4);}</style><linearGradient id="Degradado_sin_nombre_194" x1="16.5" y1="123" x2="233.5" y2="123" gradientUnits="userSpaceOnUse"><stop offset="0.3" stop-color="#916173"/><stop offset="0.49" stop-color="#a06a71"/><stop offset="0.81" stop-color="#c2806e"/><stop offset="0.92" stop-color="#d78e6b"/><stop offset="1" stop-color="#e1956a"/></linearGradient><linearGradient id="Degradado_sin_nombre_194-2" x1="62.22" y1="122.99" x2="187.84" y2="122.99" xlink:href="#Degradado_sin_nombre_194"/><linearGradient id="Degradado_sin_nombre_194-3" x1="159.54" y1="83.96" x2="172.17" y2="83.96" xlink:href="#Degradado_sin_nombre_194"/><linearGradient id="Degradado_sin_nombre_194-4" x1="86.56" x2="163.44" xlink:href="#Degradado_sin_nombre_194"/></defs><title>icono-04</title><path class="cls-1" d="M223,98.41H212.42a90.55,90.55,0,0,0-8.21-19.84l7.5-7.5a10.48,10.48,0,0,0,0-14.8l-20-20a10.48,10.48,0,0,0-14.8,0l-7.5,7.5a90.55,90.55,0,0,0-19.84-8.21V25A10.48,10.48,0,0,0,139.12,14.5H110.88A10.48,10.48,0,0,0,100.41,25V35.61a90,90,0,0,0-19.8,8.22l-7.54-7.54a10.48,10.48,0,0,0-14.8,0l-20,20a10.48,10.48,0,0,0,0,14.8l7.57,7.57a90.08,90.08,0,0,0-8.17,19.77H27A10.48,10.48,0,0,0,16.5,108.88v28.24A10.48,10.48,0,0,0,27,147.59H37.72a89.81,89.81,0,0,0,8.18,19.73l-7.61,7.61a10.48,10.48,0,0,0,0,14.8l20,20a10.48,10.48,0,0,0,14.8,0l7.61-7.61a89.81,89.81,0,0,0,19.73,8.18V221a10.48,10.48,0,0,0,10.47,10.47h28.24A10.48,10.48,0,0,0,149.59,221V210.31a90.08,90.08,0,0,0,19.77-8.17l7.57,7.57a10.48,10.48,0,0,0,14.8,0l20-20a10.48,10.48,0,0,0,0-14.8l-7.54-7.54a90,90,0,0,0,8.22-19.8H223a10.48,10.48,0,0,0,10.47-10.47V108.88A10.48,10.48,0,0,0,223,98.41ZM220.87,135h-13.4a6.37,6.37,0,0,0-6.17,4.95A77.34,77.34,0,0,1,190.9,165a6.34,6.34,0,0,0,.85,7.86l9.5,9.5-16.92,16.92-9.52-9.52a6.31,6.31,0,0,0-7.86-.86,77.29,77.29,0,0,1-25,10.35,6.35,6.35,0,0,0-5,6.16v13.49H113V205.36a6.27,6.27,0,0,0-5-6.16,77.4,77.4,0,0,1-25-10.37,6.31,6.31,0,0,0-7.86.86l-9.56,9.56L48.75,182.33l9.56-9.56a6.35,6.35,0,0,0,.86-7.86,77.58,77.58,0,0,1-10.37-25A6.27,6.27,0,0,0,42.64,135H29.13V111H42.62a6.35,6.35,0,0,0,6.16-5,77.29,77.29,0,0,1,10.35-25,6.35,6.35,0,0,0-.86-7.86l-9.52-9.52L65.67,46.75l9.5,9.5A6.29,6.29,0,0,0,83,57.1a77.34,77.34,0,0,1,25.06-10.4,6.29,6.29,0,0,0,5-6.17V27.13H137V40.51a6.37,6.37,0,0,0,5,6.17A77.27,77.27,0,0,1,167,57.06a6.33,6.33,0,0,0,7.86-.85l9.46-9.46,16.92,16.92-9.46,9.46a6.27,6.27,0,0,0-.85,7.86,77.36,77.36,0,0,1,10.38,25.09,6.37,6.37,0,0,0,6.17,5h13.38Z"/><path class="cls-2" d="M175.55,91.44a6.32,6.32,0,0,0-5.64,9.14A50,50,0,1,1,149.53,79.2a6.31,6.31,0,0,0,6.17-11,63.09,63.09,0,0,0-38.89-7.46A62.22,62.22,0,0,0,80.59,78.59,62.81,62.81,0,1,0,181.2,94.93,6.28,6.28,0,0,0,175.55,91.44Z"/><path class="cls-3" d="M165.85,90.27a6.32,6.32,0,1,0-4.46-1.85A6.35,6.35,0,0,0,165.85,90.27Z"/><path class="cls-4" d="M142.23,90.24a6.26,6.26,0,0,0-4.46,1.85l-18.63,18.63-6.91-6.91a6.31,6.31,0,0,0-8.93,0l-14.9,14.9a6.33,6.33,0,0,0,0,8.93l26.26,26.27a6.31,6.31,0,0,0,8.93,0l38-38a6.33,6.33,0,0,0,0-8.93l-14.9-14.9A6.3,6.3,0,0,0,142.23,90.24Zm-23.09,50.28L101.8,123.18l6-6,6.9,6.9a6.31,6.31,0,0,0,8.93,0l18.63-18.63,6,6Z"/></svg>