<svg xmlns="http://www.w3.org/2000/svg" width="206.552" height="175.735" viewBox="0 0 206.552 175.735"><defs><style>.a{opacity:0.4;}.b{fill:#c8efff;}.c{fill:#00e6f0;}.d{fill:#fff;}.e{fill:#61dfde;}.f{fill:#00ccf3;}.g{fill:none;stroke:#fff;stroke-linecap:round;stroke-linejoin:round;stroke-width:2.374px;}</style></defs><g transform="translate(-35.434 -100.662)"><g class="a" transform="translate(35.434 100.662)"><circle class="b" cx="23.993" cy="23.993" r="23.993" transform="translate(26.421 47.366) rotate(-80.783)"/><path class="b" d="M230.164,2533.847s101.649,29.185,131.127-50.84-25.063-118.675-72.89-82.992-55.263,38.658-82.03,38.658-32.717,14.871-38.664,25.28S148.374,2514.514,230.164,2533.847Z" transform="translate(-163.072 -2363.304)"/></g><g transform="translate(50.717 121.076)"><g transform="translate(0 0)"><path class="c" d="M137.786,31.84c3.9,4.442,6.673,9.521,6.982,15.552.154,3.022,1.358,3.852,4.316,3.8,10-.179,20.008-.075,30.014-.054,4.09.008,5.181,1.059,5.181,5.16q0,42.054-.072,84.109c-.008,4.351-1,5.342-5.372,5.344q-59.331.025-118.662.01c-3.677,0-7.354.038-11.03,0-3.741-.044-4.937-1.09-4.941-4.716q-.049-42.752-.01-85.505c0-3.3,1.688-4.464,4.834-4.442,11.053.074,22.105-.087,33.155.1,3.149.054,4.293-.75,4.886-4.025,1.655-9.106,5.529-16.95,14.728-20.831C127.392,19.592,137.786,31.84,137.786,31.84Zm-40.2,18.99h36.583c.3-10.327-6.487-16.808-18.04-17.208C104.516,33.219,97.609,40.757,97.588,50.83Z" transform="translate(-20.09 -24.312)"/><g transform="translate(0 49.005)"><path class="d" d="M62.537,140.657a27.168,27.168,0,0,1-17.044-6.035l-.652-.526-8.854,0V90.111h8.642l12.58-14.235A17.948,17.948,0,0,0,61.7,63.991l0-.152a9.808,9.808,0,0,1,9.863-9.621,9.967,9.967,0,0,1,8.39,4.587l.093.143.084.147a30.1,30.1,0,0,1,2.337,24.483l13.434.039a11.737,11.737,0,0,1,11.708,11.73c0,.672-.007,2.492-.016,4.962-.028,7.744-.1,25.878,0,28.062a11.73,11.73,0,0,1-11.715,12.287Z" transform="translate(-25.328 -54.218)"/><path class="e" d="M43.9,127.968l2.478,2a22.056,22.056,0,0,0,13.879,4.914H95.421a5.866,5.866,0,0,0,5.858-6.15c-.149-3.154.007-31.883.007-35.123a5.865,5.865,0,0,0-5.865-5.865l-23.844-.072,2.92-6.914A25.022,25.022,0,0,0,73.17,58.618a3.936,3.936,0,0,0-7.29,1.937,25.447,25.447,0,0,1-6.366,16.836L44.31,94.6H38.766v33.373Z" transform="translate(-23.553 -52.6)"/><path class="f" d="M47.458,124.334H31.4a2.029,2.029,0,0,1-1.922-2.12V77.055a2.029,2.029,0,0,1,1.922-2.12H47.458a2.029,2.029,0,0,1,1.922,2.12v45.158A2.03,2.03,0,0,1,47.458,124.334Z" transform="translate(-29.482 -40.987)"/></g></g><line class="g" y1="7.782" x2="7.782" transform="translate(82.288 62.253)"/><line class="g" x2="9.155" y2="4.2" transform="translate(92.79 106.782)"/><line class="g" y1="3.559" x2="10.413" transform="translate(94.589 81.873)"/></g></g></svg>